<svg width="20" height="20" viewBox="0 0 20 20" fill="none" xmlns="http://www.w3.org/2000/svg"><path fill-rule="evenodd" clip-rule="evenodd" d="M3.541 7.096c0-3.385 2.934-6.054 6.458-6.054s6.459 2.669 6.459 6.054c0 3.175-1.97 6.904-5.146 8.262a3.35 3.35 0 0 1-2.625 0C5.51 14 3.54 10.271 3.54 7.095Zm6.458-4.804c-2.919 0-5.208 2.191-5.208 4.804 0 2.773 1.754 5.987 4.388 7.112a2.108 2.108 0 0 0 1.641 0c2.633-1.125 4.388-4.339 4.388-7.112 0-2.612-2.29-4.804-5.209-4.804Zm0 4.166a1.042 1.042 0 1 0 0 2.084 1.042 1.042 0 0 0 0-2.084ZM7.708 7.5a2.292 2.292 0 1 1 4.583 0 2.292 2.292 0 0 1-4.583 0Zm-4.713 4.998a.625.625 0 0 1-.043.882c-.473.428-.661.838-.661 1.203 0 .637.603 1.421 2.073 2.082 1.41.635 3.402 1.043 5.635 1.043 2.234 0 4.226-.408 5.636-1.043 1.47-.66 2.073-1.445 2.073-2.082 0-.365-.188-.775-.661-1.203a.626.626 0 0 1 .839-.927c.636.576 1.072 1.298 1.072 2.13 0 1.435-1.263 2.525-2.81 3.222-1.605.723-3.78 1.153-6.149 1.153-2.368 0-4.543-.43-6.149-1.153-1.546-.697-2.809-1.787-2.809-3.222 0-.832.436-1.554 1.072-2.13a.624.624 0 0 1 .882.045Z" fill="#fff"/></svg>