<svg width="16" height="16" viewBox="0 0 16 16" fill="none" xmlns="http://www.w3.org/2000/svg"><path d="M9.666 4.333h2m0 0h2m-2 0v2m0-2v-2" stroke="#fff" stroke-linecap="round"/><path d="M1.666 4.333c0-1.257 0-1.885.39-2.276.391-.39 1.02-.39 2.277-.39 1.257 0 1.885 0 2.276.39.39.391.39 1.019.39 2.276C7 5.591 7 6.22 6.61 6.61 6.218 7 5.59 7 4.333 7c-1.258 0-1.886 0-2.276-.39-.391-.391-.391-1.02-.391-2.277Zm7.333 7.334c0-1.258 0-1.886.391-2.276C9.78 9 10.409 9 11.666 9s1.885 0 2.276.39c.39.391.39 1.02.39 2.277 0 1.257 0 1.885-.39 2.276-.39.39-1.019.39-2.276.39s-1.885 0-2.276-.39C9 13.552 9 12.924 9 11.667ZM1.666 11.667c0-1.258 0-1.886.39-2.276C2.448 9 3.077 9 4.334 9c1.257 0 1.885 0 2.276.39.39.391.39 1.02.39 2.277 0 1.257 0 1.885-.39 2.276-.391.39-1.019.39-2.276.39-1.258 0-1.886 0-2.276-.39-.391-.391-.391-1.019-.391-2.276Z" stroke="#fff"/></svg>