<svg width="24" height="24" viewBox="0 0 24 24" fill="none" xmlns="http://www.w3.org/2000/svg"><path fill-rule="evenodd" clip-rule="evenodd" d="M8.335 3.026A1.791 1.791 0 0 1 9.953 2h4.094c.714 0 1.33.42 1.618 1.026.7.006 1.245.038 1.732.228a3.326 3.326 0 0 1 1.459 1.118c.375.506.551 1.156.794 2.05l.038.139.604 2.223c.402.203.755.493 1.033.849.637.817.75 1.79.637 2.907-.11 1.083-.45 2.447-.876 4.154l-.028.108c-.27 1.08-.488 1.957-.747 2.641-.272.714-.616 1.298-1.184 1.743-.567.444-1.217.636-1.973.728-.725.086-1.627.086-2.737.086H9.583c-1.11 0-2.013 0-2.737-.087-.757-.09-1.406-.283-1.974-.728-.567-.444-.91-1.028-1.183-1.742-.26-.684-.478-1.56-.747-2.64l-.028-.109c-.425-1.707-.766-3.071-.876-4.153-.112-1.118 0-2.09.636-2.908.29-.371.636-.646 1.033-.85l.604-2.222.039-.14c.243-.893.419-1.543.794-2.05.372-.502.878-.889 1.46-1.117.486-.19 1.03-.223 1.73-.228Zm0 1.541c-.677.007-.948.033-1.173.121a1.791 1.791 0 0 0-.786.602c-.18.243-.286.583-.583 1.677l-.362 1.33c1.062-.143 2.433-.143 4.136-.143h4.865c1.704 0 3.075 0 4.136.142l-.36-1.33c-.299-1.094-.404-1.434-.584-1.677a1.79 1.79 0 0 0-.786-.602c-.225-.088-.497-.114-1.175-.12a1.793 1.793 0 0 1-1.616 1.023H9.953a1.788 1.788 0 0 1-1.616-1.024m1.616-1.028a.256.256 0 0 0-.18.438.255.255 0 0 0 .18.075h4.094a.255.255 0 0 0 .255-.256.257.257 0 0 0-.255-.257H9.953Zm-4.4 6.294c-.93.135-1.382.381-1.668.748-.286.367-.414.864-.319 1.804.097.96.41 2.215.854 4 .284 1.136.48 1.924.706 2.512.215.569.426.87.692 1.077.265.207.607.34 1.21.413.625.075 1.434.076 2.604.076h4.738c1.17 0 1.98-.002 2.603-.076.604-.072.946-.206 1.21-.413.267-.208.477-.508.694-1.077.224-.588.421-1.376.704-2.512.446-1.785.758-3.04.854-4 .096-.94-.033-1.438-.318-1.805-.286-.366-.737-.612-1.67-.747-.951-.138-2.242-.14-4.077-.14H9.632c-1.835 0-3.126.002-4.078.14" fill="#fff"/></svg>