<svg width="20" height="20" viewBox="0 0 20 20" fill="none" xmlns="http://www.w3.org/2000/svg"><path d="M1.666 10c0-3.142 0-4.714.977-5.69.976-.976 2.547-.977 5.69-.977h3.333c3.143 0 4.714 0 5.69.977s.977 2.548.977 5.69c0 3.143 0 4.714-.977 5.69s-2.548.977-5.69.977H8.333c-3.143 0-4.714 0-5.69-.977s-.977-2.547-.977-5.69Z" stroke="#fff" stroke-width="1.25"/><path d="m5 6.667 1.8 1.5c1.53 1.274 2.295 1.912 3.2 1.912.905 0 1.67-.638 3.2-1.913l1.8-1.5" stroke="#fff" stroke-width="1.25" stroke-linecap="round"/></svg>