<svg width="46" height="32" viewBox="0 0 46 32" fill="none" xmlns="http://www.w3.org/2000/svg"><rect width="46" height="32" rx="16" fill="#fff"/><g clip-path="url(#a)"><path d="M30.101 12.883c.935 0 1.657.255 2.21.765.552.51.807 1.19.807 2.04v4.078h-1.19v-.935h-.042c-.51.765-1.232 1.147-2.082 1.147-.722 0-1.36-.212-1.87-.637-.467-.425-.764-1.02-.764-1.657 0-.68.255-1.232.764-1.657.51-.425 1.233-.595 2.082-.595.765 0 1.36.128 1.827.425v-.297c0-.397-.148-.793-.444-1.052l-.066-.053a1.85 1.85 0 0 0-1.232-.467c-.722 0-1.274.297-1.657.892l-1.104-.68c.68-.892 1.572-1.317 2.761-1.317Zm-5.99-2.889c.762 0 1.487.265 2.066.76l.1.09c.595.51.893 1.274.893 2.082 0 .807-.298 1.53-.892 2.081a3.087 3.087 0 0 1-2.167.85l-2.04-.042v3.95h-1.274v-9.77h3.314Zm6.16 6.458c-.51 0-.934.127-1.274.382-.34.213-.51.51-.51.893 0 .34.17.637.425.807.297.212.637.34.977.34.476 0 .952-.185 1.324-.52l.078-.075c.425-.383.637-.85.637-1.36-.382-.297-.934-.467-1.657-.467m-6.075-5.268h-2.124v3.399h2.124c.467 0 .934-.17 1.232-.51.68-.637.68-1.7.043-2.337l-.043-.042c-.34-.34-.765-.553-1.232-.51M40 13.096l-4.207 9.644H34.52l1.572-3.356-2.762-6.246h1.36l1.997 4.801h.042l1.954-4.8h1.318v-.043Z" fill="#5F6368"/><path d="M17.017 14.965c0-.383-.043-.765-.085-1.147h-5.31v2.166h3.015c-.127.68-.51 1.317-1.104 1.7v1.402h1.827c1.062-.977 1.657-2.422 1.657-4.121" fill="#4285F4"/><path d="M11.619 20.445c1.53 0 2.804-.51 3.739-1.359l-1.827-1.402c-.51.34-1.148.552-1.912.552-1.445 0-2.72-.977-3.144-2.337h-1.87v1.445c.978 1.912 2.89 3.101 5.014 3.101Z" fill="#34A853"/><path d="M8.475 15.9a3.165 3.165 0 0 1 0-2.167v-1.445h-1.87c-.807 1.572-.807 3.442 0 5.056l1.87-1.445Z" fill="#FBBC04"/><path d="M11.62 11.438c.807 0 1.571.298 2.166.85l1.614-1.614c-1.02-.935-2.379-1.487-3.738-1.445-2.125 0-4.079 1.19-5.014 3.102l1.87 1.444a3.237 3.237 0 0 1 3.101-2.337Z" fill="#EA4335"/></g><defs><clipPath id="a"><path fill="#fff" d="M6 9.227h33.999v13.547H6z"/></clipPath></defs></svg>