<svg width="46" height="32" viewBox="0 0 46 32" fill="none" xmlns="http://www.w3.org/2000/svg"><rect width="46" height="32" rx="16" fill="#fff"/><g clip-path="url(#a)"><path d="M12.212 10.794c-.398.472-1.036.844-1.673.79-.08-.637.232-1.314.597-1.733.399-.485 1.096-.83 1.66-.856.067.664-.192 1.314-.584 1.8Zm.578.917c-.923-.053-1.713.524-2.152.524-.445 0-1.116-.498-1.846-.484-.95.013-1.833.55-2.318 1.407-.996 1.714-.259 4.25.704 5.645.472.69 1.036 1.448 1.78 1.421.704-.026.983-.458 1.833-.458.857 0 1.102.458 1.846.445.77-.013 1.255-.69 1.727-1.381.538-.784.757-1.547.77-1.587-.013-.014-1.487-.578-1.5-2.278-.014-1.421 1.162-2.099 1.215-2.139-.665-.982-1.7-1.089-2.06-1.115Zm5.333-1.926v10.353h1.607v-3.54h2.224c2.033 0 3.46-1.394 3.46-3.413s-1.4-3.4-3.406-3.4h-3.885Zm1.607 1.355h1.852c1.395 0 2.192.743 2.192 2.052 0 1.308-.797 2.058-2.198 2.058H19.73v-4.11Zm8.62 9.078c1.01 0 1.945-.512 2.37-1.322h.034v1.242h1.487v-5.153c0-1.494-1.195-2.457-3.035-2.457-1.706 0-2.968.976-3.015 2.317h1.448c.12-.637.71-1.056 1.52-1.056.984 0 1.535.459 1.535 1.302v.571l-2.006.12c-1.866.113-2.875.876-2.875 2.204 0 1.342 1.042 2.232 2.537 2.232Zm.431-1.229c-.856 0-1.4-.412-1.4-1.042 0-.651.524-1.03 1.526-1.09l1.787-.112v.584c0 .97-.823 1.66-1.913 1.66m5.446 3.965c1.567 0 2.305-.598 2.949-2.41l2.822-7.917h-1.634l-1.892 6.116h-.034l-1.892-6.116h-1.68l2.722 7.538-.146.458c-.245.777-.644 1.076-1.355 1.076-.126 0-.371-.014-.471-.027v1.242c.093.027.491.04.611.04" fill="#151515"/></g><defs><clipPath id="a"><path fill="#fff" d="M6 8.995h33.998v14.01H6z"/></clipPath></defs></svg>