<svg width="46" height="32" viewBox="0 0 46 32" fill="none" xmlns="http://www.w3.org/2000/svg"><rect width="46" height="32" rx="16" fill="#fff"/><path d="M23.15 14.126c-.019 1.45 1.292 2.258 2.279 2.74 1.014.493 1.355.81 1.351 1.251-.008.675-.81.974-1.56.985-1.308.02-2.068-.353-2.673-.636l-.472 2.206c.607.28 1.73.524 2.896.534 2.735 0 4.525-1.35 4.535-3.443.01-2.657-3.675-2.804-3.65-3.992.008-.36.352-.744 1.105-.842.373-.05 1.401-.087 2.568.45l.458-2.134a6.981 6.981 0 0 0-2.438-.447c-2.574 0-4.385 1.369-4.4 3.328Zm11.235-3.144c-.5 0-.92.291-1.108.738l-3.907 9.33h2.733l.544-1.504h3.34l.316 1.503h2.409l-2.103-10.067h-2.224Zm.383 2.72.788 3.78h-2.16l1.372-3.78Zm-14.932-2.72L17.68 21.05h2.605l2.153-10.067h-2.603Zm-3.853 0-2.711 6.852-1.097-5.826c-.129-.65-.637-1.026-1.2-1.026H6.542l-.063.292c.91.198 1.944.516 2.57.857.383.208.493.39.619.884l2.077 8.034h2.752l4.22-10.067h-2.735Z" fill="url(#a)"/><defs><linearGradient id="a" x1="1488.28" y1="42.085" x2="1518.41" y2="-1026.85" gradientUnits="userSpaceOnUse"><stop stop-color="#222357"/><stop offset="1" stop-color="#254AA5"/></linearGradient></defs></svg>