<svg width="46" height="32" viewBox="0 0 46 32" fill="none" xmlns="http://www.w3.org/2000/svg"><rect width="46" height="32" rx="16" fill="#fff"/><g clip-path="url(#a)"><path d="M19.918 10.552h6.145v11.041h-6.145V10.552Z" fill="#FF5F00"/><path d="M20.306 16.072a7.042 7.042 0 0 1 2.673-5.521 7.018 7.018 0 0 0-11.354 5.52 7.018 7.018 0 0 0 11.354 5.522 7.013 7.013 0 0 1-2.673-5.521Z" fill="#EB001B"/><path d="M34.354 16.072A7.018 7.018 0 0 1 23 21.592a6.983 6.983 0 0 0 2.673-5.52A7.042 7.042 0 0 0 23 10.55a6.98 6.98 0 0 1 4.33-1.502c3.883 0 7.024 3.16 7.024 7.023Z" fill="#F79E1B"/></g><defs><clipPath id="a"><path fill="#fff" d="M11 8.421h24v15.158H11z"/></clipPath></defs></svg>