<svg width="24" height="24" viewBox="0 0 24 24" fill="none" xmlns="http://www.w3.org/2000/svg"><path d="m12 6.01-.553.529a.768.768 0 0 0 .853.172.768.768 0 0 0 .253-.172L12 6.01ZM9.366 19.029c-1.551-1.214-3.247-2.398-4.592-3.9-1.318-1.475-2.24-3.194-2.24-5.425H1c0 2.707 1.136 4.771 2.627 6.435 1.463 1.635 3.33 2.944 4.789 4.085l.95-1.195ZM2.535 9.703c0-2.183 1.243-4.014 2.94-4.784 1.65-.749 3.867-.55 5.972 1.62l1.106-1.055c-2.497-2.576-5.4-3-7.716-1.95C2.572 4.562 1 6.95 1 9.704h1.535Zm5.88 10.52c.525.41 1.088.847 1.658 1.178.57.331 1.221.599 1.927.599v-1.523c-.317 0-.69-.122-1.152-.39-.464-.269-.944-.638-1.482-1.06l-.95 1.196Zm7.17 0c1.459-1.142 3.325-2.45 4.788-4.085C21.864 14.473 23 12.41 23 9.703h-1.535c0 2.231-.92 3.95-2.239 5.424-1.345 1.503-3.04 2.687-4.592 3.9l.95 1.196ZM23 9.703c0-2.753-1.57-5.14-3.837-6.17-2.317-1.05-5.217-.625-7.716 1.95l1.106 1.056c2.105-2.17 4.322-2.369 5.971-1.62 1.698.77 2.941 2.6 2.941 4.784H23Zm-8.366 9.325c-.538.42-1.018.79-1.482 1.058-.463.268-.835.391-1.152.391V22c.706 0 1.357-.269 1.927-.599.57-.33 1.133-.767 1.658-1.178l-.951-1.195Z" fill="#151515"/></svg>