<svg width="16" height="16" viewBox="0 0 16 16" fill="none" xmlns="http://www.w3.org/2000/svg"><path d="M7.999 11.333a.646.646 0 0 0 .475-.192.643.643 0 0 0 .191-.474V8a.643.643 0 0 0-.192-.475A.648.648 0 0 0 8 7.333a.641.641 0 0 0-.475.192.646.646 0 0 0-.192.475v2.667c0 .189.064.347.192.475a.643.643 0 0 0 .475.191Zm0-5.333a.646.646 0 0 0 .475-.192.643.643 0 0 0 .191-.475.648.648 0 0 0-.192-.474A.643.643 0 0 0 8 4.667a.643.643 0 0 0-.475.192.648.648 0 0 0-.192.474c0 .189.064.347.192.476A.64.64 0 0 0 7.999 6Zm0 8.667a6.489 6.489 0 0 1-2.6-.526 6.742 6.742 0 0 1-2.117-1.424A6.717 6.717 0 0 1 1.857 10.6 6.506 6.506 0 0 1 1.332 8c0-.922.175-1.788.525-2.6a6.748 6.748 0 0 1 1.425-2.117c.6-.6 1.305-1.074 2.117-1.424a6.494 6.494 0 0 1 2.6-.526c.921 0 1.788.175 2.6.526.812.35 1.517.825 2.116 1.424.6.6 1.075 1.305 1.426 2.117.35.812.526 1.678.524 2.6a6.538 6.538 0 0 1-.525 2.6 6.687 6.687 0 0 1-1.425 2.117c-.6.6-1.306 1.074-2.116 1.425-.81.35-1.677.526-2.6.525Z" fill="#7F7F7F"/></svg>