<svg width="74" height="74" viewBox="0 0 74 74" fill="none" xmlns="http://www.w3.org/2000/svg"><path fill-rule="evenodd" clip-rule="evenodd" d="M59.295 21.909c.224-.072.519.071.813.463L73.417 35.52c.777.785.777 1.973 0 2.556l-13.309 13.35c-.294.392-.589.487-.813.368-.223-.119-.365-.463-.365-.963V22.765c0-.488.142-.785.365-.856ZM36.529 0h.942l.907.38 13.698 13.742c.588.785.388 1.38-.59 1.38H45.81c-.978 0-1.755.784-1.755 1.77v10.2c0 .987-.79 1.771-1.967 1.771h-9.976a1.762 1.762 0 0 1-1.767-1.77v-10.2c0-.987-.777-1.772-1.766-1.772h-6.066c-.977 0-1.178-.594-.589-1.379L35.634.38l.895-.38ZM15.07 21.612c.247.119.4.463.4.963v28.649c0 .499-.153.796-.4.891-.236.095-.577 0-.978-.297L.583 38.076c-.777-.583-.777-1.771 0-2.556l13.51-13.54c.4-.392.741-.487.977-.368ZM32.112 44.162h9.976c1.178 0 1.967.785 1.967 1.772v10.793c0 1.177.777 1.962 1.755 1.962h5.288c.978 0 1.366.582.589 1.177l-13.309 13.54c-.4.392-.883.594-1.378.594-.483 0-.978-.202-1.366-.594l-13.31-13.54c-.788-.595-.4-1.177.578-1.177h5.677c.99 0 1.767-.785 1.767-1.962V45.934c0-.987.789-1.772 1.766-1.772Z" fill="#ED1C24"/></svg>