<svg width="147" height="32" viewBox="0 0 147 32" fill="none" xmlns="http://www.w3.org/2000/svg"><g clip-path="url(#a)" fill="#151515"><path d="M13.845 15.541c.993.29 1.868.886 2.5 1.705.623.836.943 1.859.907 2.9 0 1.632-.639 2.891-1.916 3.779-1.278.887-3.123 1.319-5.537 1.294H.166V6.6h9.102c2.27 0 4.009.435 5.215 1.306a4.12 4.12 0 0 1 1.837 3.538 4.532 4.532 0 0 1-2.475 4.1v-.002ZM4.447 9.847v4.391h4.286c1.064 0 1.873-.186 2.42-.559a1.866 1.866 0 0 0 .827-1.65 1.798 1.798 0 0 0-.826-1.623c-.548-.374-1.357-.56-2.421-.56H4.447Zm5.03 12.136c1.138 0 1.99-.187 2.555-.56.566-.372.858-.947.878-1.726 0-1.542-1.144-2.314-3.433-2.315h-5.03v4.605l5.03-.004Zm20.058 3.567a10.955 10.955 0 0 1-5.242-1.252 9.424 9.424 0 0 1-3.647-3.433 9.547 9.547 0 0 1-1.31-4.95A9.266 9.266 0 0 1 24.3 7.53 10.956 10.956 0 0 1 29.54 6.28 10.813 10.813 0 0 1 34.76 7.53a9.37 9.37 0 0 1 3.645 3.453 9.256 9.256 0 0 1 1.327 4.93 9.28 9.28 0 0 1-4.976 8.384 10.814 10.814 0 0 1-5.218 1.252h-.002Zm0-3.669a5.982 5.982 0 0 0 2.982-.747 5.435 5.435 0 0 0 2.076-2.127 6.576 6.576 0 0 0 0-6.176 5.26 5.26 0 0 0-2.076-2.102 6.14 6.14 0 0 0-5.962 0 5.437 5.437 0 0 0-2.102 2.102 6.759 6.759 0 0 0 0 6.176 5.62 5.62 0 0 0 2.102 2.127c.912.504 1.94.76 2.982.743l-.002.004ZM84.289 21.238h-8.647l-1.65 3.992h-4.418L77.878 6.6h4.253l8.332 18.63H85.93l-1.642-3.992Zm-1.358-3.273-2.958-7.134-2.948 7.134h5.906Zm15.6 7.585a15.69 15.69 0 0 1-4.284-.587 10.204 10.204 0 0 1-3.301-1.57l1.465-3.236a9.969 9.969 0 0 0 2.846 1.411c1.066.349 2.18.528 3.302.531 1.223 0 2.128-.177 2.714-.53.587-.355.88-.843.879-1.466a1.337 1.337 0 0 0-.533-1.09 3.634 3.634 0 0 0-1.332-.718c-.53-.18-1.26-.373-2.181-.587a30.45 30.45 0 0 1-3.487-1.01 5.77 5.77 0 0 1-2.346-1.636c-.639-.745-.958-1.738-.958-2.98a5.13 5.13 0 0 1 .878-2.928 5.865 5.865 0 0 1 2.635-2.102c1.19-.513 2.635-.77 4.337-.772 1.176 0 2.347.144 3.487.431 1.05.247 2.053.659 2.974 1.22l-1.329 3.273c-1.727-.975-3.448-1.463-5.164-1.463-1.206 0-2.102.195-2.689.585a1.792 1.792 0 0 0-.85 1.543c0 .638.328 1.117.984 1.437.989.398 2.013.701 3.06.906a30.35 30.35 0 0 1 3.487 1.01c.893.33 1.689.88 2.315 1.597.656.728.984 1.712.984 2.954a5.096 5.096 0 0 1-.904 2.928c-.585.863-1.472 1.555-2.661 2.076-1.188.52-2.631.778-4.328.773Zm23.119-4.316h-8.661l-1.651 3.992h-4.415l8.303-18.631h4.258l8.329 18.63h-4.531l-1.632-3.991Zm-1.368-3.27-2.954-7.133-2.954 7.134h5.908ZM146.824 6.6V25.23h-3.539l-9.279-11.311V25.23h-4.259V6.6h3.567l9.261 11.31V6.6h4.249ZM55.178-.054a10.66 10.66 0 0 0-10.647 10.645v10.647a10.647 10.647 0 0 0 21.292 0V10.591A10.658 10.658 0 0 0 55.178-.054Zm7.318 21.292a7.32 7.32 0 0 1-14.637 0V10.591a7.337 7.337 0 0 1 5.722-7.138v6.806a1.664 1.664 0 1 0 3.326 0V3.487a7.337 7.337 0 0 1 5.589 7.104v10.647Z"/></g><defs><clipPath id="a"><path fill="#fff" d="M0 0h147v32H0z"/></clipPath></defs></svg>