<svg width="110" height="110" viewBox="0 0 110 110" fill="none" xmlns="http://www.w3.org/2000/svg"><path fill-rule="evenodd" clip-rule="evenodd" d="m7.453 103.038-1.445-1.215c-3.503-2.936-4.122-8.303-.925-11.745l37.509-42.122c2.989-3.442 8.452-4.05 11.955-.911l1.445 1.215c3.503 2.937 4.122 8.303.925 11.745l-37.513 42.122c-2.985 3.443-8.244 3.847-11.951.911Z" fill="url(#a)"/><path opacity=".4" fill-rule="evenodd" clip-rule="evenodd" d="M37.583 55.805 36.85 55 31 61.443l.627.705c10.03 9.664 5.745 19.43 3.447 22.852l.838-.906c1.355-1.51 3.447-3.825 5.64-6.342 2.302-3.826 5.538-12.886-3.97-21.947Z" fill="url(#b)"/><path opacity=".4" fill-rule="evenodd" clip-rule="evenodd" d="m50.06 68.464 1.53-1.821c.102-.215.307-.429.41-.643-1.631 1.929-3.365 3.964-5 6a268.313 268.313 0 0 0 3.06-3.536Z" fill="url(#c)"/><path fill-rule="evenodd" clip-rule="evenodd" d="M56.886 49.938 19.395 7.948c-2.987-3.433-8.447-4.038-11.948-.91L6.007 8.25c-3.501 2.927-4.12 8.277-.929 11.71l31.62 35.127.723.807c9.371 9.186 6.177 18.27 3.808 22.106 1.855-2.12 3.709-4.24 5.46-6.157 1.647-1.918 3.398-3.836 5.048-5.653 1.648-1.817 3.19-3.533 4.22-4.643 3.605-3.432 4.123-8.176.929-11.608Z" fill="url(#d)"/><path fill-rule="evenodd" clip-rule="evenodd" d="m55.45 103.038-1.44-1.215c-3.504-2.936-4.123-8.303-.93-11.745l37.512-42.122c2.989-3.442 8.452-4.05 11.955-.911l1.445 1.215c3.503 2.937 4.122 8.303.925 11.745l-37.513 42.122c-2.988 3.443-8.243 3.847-11.954.911Z" fill="url(#e)"/><path opacity=".4" fill-rule="evenodd" clip-rule="evenodd" d="M85.582 54.805 84.85 54 79 60.443l.627.705c10.03 9.664 5.745 19.43 3.447 22.852l.838-.906c1.359-1.51 3.447-3.825 5.64-6.342 2.302-3.826 5.538-12.886-3.97-21.947Z" fill="url(#f)"/><path opacity=".4" fill-rule="evenodd" clip-rule="evenodd" d="m97.673 68.464 1.834-1.821c.123-.215.37-.429.493-.643-1.962 1.929-4.043 3.964-6 6 1.47-1.393 2.815-2.572 3.673-3.536Z" fill="url(#g)"/><path fill-rule="evenodd" clip-rule="evenodd" d="M104.888 49.938 67.395 7.948c-2.987-3.433-8.446-4.038-11.948-.91l-1.44 1.212c-3.501 2.927-4.12 8.277-.929 11.71L84.7 55.086l.722.807C94.794 65.08 91.599 74.164 89.23 78c1.855-2.12 3.71-4.24 5.46-6.157 1.647-1.918 3.398-3.836 5.049-5.653 1.647-1.817 3.19-3.533 4.219-4.643 3.606-3.432 4.12-8.176.93-11.608Z" fill="url(#h)"/><defs><linearGradient id="a" x1="19.169" y1="116.185" x2="70.877" y2="90.669" gradientUnits="userSpaceOnUse"><stop stop-color="#1FADC3"/><stop offset=".707" stop-color="#36B98F"/></linearGradient><linearGradient id="b" x1="37.486" y1="76.79" x2="47.337" y2="75.301" gradientUnits="userSpaceOnUse"><stop stop-color="#123F06" stop-opacity=".01"/><stop offset="1" stop-color="#123F06"/></linearGradient><linearGradient id="d" x1="-16.632" y1="60.643" x2="46.194" y2="82.794" gradientUnits="userSpaceOnUse"><stop stop-color="#9FDB57"/><stop offset="1" stop-color="#71CA5E"/></linearGradient><linearGradient id="e" x1="67.121" y1="116.21" x2="118.829" y2="90.695" gradientUnits="userSpaceOnUse"><stop stop-color="#1FADC3"/><stop offset=".707" stop-color="#36B98F"/></linearGradient><linearGradient id="f" x1="85.486" y1="75.79" x2="95.337" y2="74.301" gradientUnits="userSpaceOnUse"><stop stop-color="#123F06" stop-opacity=".01"/><stop offset="1" stop-color="#123F06"/></linearGradient><linearGradient id="h" x1="31.399" y1="60.661" x2="94.222" y2="82.814" gradientUnits="userSpaceOnUse"><stop stop-color="#9FDB57"/><stop offset="1" stop-color="#71CA5E"/></linearGradient><radialGradient id="c" cx="0" cy="0" r="1" gradientUnits="userSpaceOnUse" gradientTransform="matrix(24.8695 0 0 29.8559 29.603 74.034)"><stop offset=".418" stop-color="#123F06" stop-opacity=".01"/><stop offset="1" stop-color="#123F06"/></radialGradient><radialGradient id="g" cx="0" cy="0" r="1" gradientUnits="userSpaceOnUse" gradientTransform="matrix(29.8434 0 0 29.8559 73.17 74.034)"><stop offset=".418" stop-color="#123F06" stop-opacity=".01"/><stop offset="1" stop-color="#123F06"/></radialGradient></defs></svg>