<svg width="800" height="550" viewBox="0 0 800 550" fill="none" xmlns="http://www.w3.org/2000/svg"><g clip-path="url(#a)"><path d="M731.429 6.429H68.572c-34.715 0-62.857 28.142-62.857 62.857v411.428c0 34.715 28.142 62.857 62.857 62.857h662.857c34.715 0 62.857-28.142 62.857-62.857V69.286c0-34.715-28.142-62.857-62.857-62.857Z" fill="#fff" stroke="#EDEDED" stroke-width="11.429"/><g clip-path="url(#b)"><g filter="url(#c)"><path fill-rule="evenodd" clip-rule="evenodd" d="m354.88 388.472-.342.03-.353.031c-8.315.746-17.867 1.604-27.015-.201-10.088-1.989-19.369-7.083-27.361-17.3-15.299-19.555-10.756-47.627 2.988-64.522 4.711-6.339 10.173-11.25 15.381-15.215-8.357-.517-16.085-4.239-22.26-9.675-8.18-7.2-14.15-17.747-16.556-29.8-2.406-12.054-.943-24.086 3.844-33.875 4.793-9.799 13.262-17.863 24.757-20.158 10.781-2.152 21.053 1.404 29.042 7.799a66.634 66.634 0 0 1-.498-8.153c0-13.433 4-26.005 10.978-35.464 6.972-9.456 17.449-16.358 29.964-16.358 12.515 0 22.99 6.902 29.964 16.358 5.187 7.032 8.73 15.786 10.206 25.335 5.438-9.4 12.849-16.994 21.24-21.886 10.383-6.054 22.997-8.286 34.698-3.194 11.701 5.091 18.666 15.84 21.316 27.562 2.649 11.731 1.247 25.186-4.252 37.827a68.924 68.924 0 0 1-2.652 5.431c11.628-4.019 24.19-3.329 34.523 4.555 19.057 14.54 16.52 42.859 2.163 61.679-11.866 15.552-32.123 25.031-49.552 19.648 3.133 4.684 6.232 10.154 8.75 17.205 8.263 23.15 3.713 54.405-24.159 66.832-22.205 9.9-39.983 1.259-53.963-5.538l-.856-.414c-9.163-4.449-16.8-8.054-25.289-9.036-8.205-.949-16.133-.272-24.706.497Z" fill="#fff"/></g><path fill-rule="evenodd" clip-rule="evenodd" d="M407.981 197.433c0 22.888-13.684 41.443-30.563 41.443-16.88 0-30.564-18.555-30.564-41.443 0-22.889 13.684-41.444 30.564-41.444 16.879 0 30.563 18.555 30.563 41.444Zm-64.563 88.827c6.18-5.093 11.632-10.604 16.819-15.845 14.129-14.279 26.293-26.572 45.848-23.058 23.475 4.22 29.766 19.195 37.535 37.688 2.38 5.667 4.9 11.666 8.094 17.786 3.106 5.947 6.492 10.517 9.801 14.986 4.657 6.286 9.165 12.369 12.532 21.804 7.206 20.184 2.469 44.464-18.61 53.862-17.771 7.923-31.587 1.215-46.061-5.811-8.932-4.335-18.114-8.792-28.629-10.009-9.42-1.088-18.375-.286-26.823.469-17.651 1.58-33.096 2.963-45.971-13.495-11.648-14.888-8.594-37.656 3.006-51.75 6.84-9.287 15.656-15.104 23.253-20.118 3.41-2.252 6.576-4.341 9.206-6.509Zm91.838-36.074c15.88 6.908 36.391-5.052 45.816-26.714 9.424-21.662 4.193-44.823-11.686-51.732-15.88-6.908-36.392 5.052-45.816 26.715-9.426 21.662-4.193 44.823 11.686 51.731Zm81.116 42.795c-12.511 16.398-32.887 21.883-45.512 12.251-12.625-9.633-12.718-30.734-.208-47.132 12.513-16.399 32.888-21.882 45.513-12.25 12.625 9.632 12.719 30.733.207 47.131Zm-191.918-12.433c15.299-3.054 24.457-21.778 20.455-41.822-4.002-20.042-19.647-33.815-34.946-30.76-15.298 3.052-24.456 21.778-20.455 41.82 4.002 20.044 19.647 33.816 34.946 30.762Z" fill="#151515"/></g></g><defs><clipPath id="a"><path fill="#fff" d="M0 0h800v550H0z"/></clipPath><clipPath id="b"><path fill="#fff" d="M263 138h274v274H263z"/></clipPath><filter id="c" x="273.778" y="142.278" width="266.771" height="280.718" filterUnits="userSpaceOnUse" color-interpolation-filters="sRGB"><feFlood flood-opacity="0" result="BackgroundImageFix"/><feColorMatrix in="SourceAlpha" values="0 0 0 0 0 0 0 0 0 0 0 0 0 0 0 0 0 0 127 0" result="hardAlpha"/><feOffset dy="1.111"/><feGaussianBlur stdDeviation="2.222"/><feComposite in2="hardAlpha" operator="out"/><feColorMatrix values="0 0 0 0 0 0 0 0 0 0 0 0 0 0 0 0 0 0 0.15 0"/><feBlend in2="BackgroundImageFix" result="effect1_dropShadow_2162_9874"/><feBlend in="SourceGraphic" in2="effect1_dropShadow_2162_9874" result="shape"/><feColorMatrix in="SourceAlpha" values="0 0 0 0 0 0 0 0 0 0 0 0 0 0 0 0 0 0 127 0" result="hardAlpha"/><feOffset dy="15.556"/><feGaussianBlur stdDeviation="15.556"/><feComposite in2="hardAlpha" operator="arithmetic" k2="-1" k3="1"/><feColorMatrix values="0 0 0 0 0.354809 0 0 0 0 0.391219 0 0 0 0 0.445833 0 0 0 0.12 0"/><feBlend in2="shape" result="effect2_innerShadow_2162_9874"/></filter></defs></svg>