<svg width="74" height="74" viewBox="0 0 74 74" fill="none" xmlns="http://www.w3.org/2000/svg"><path d="m60.78 42.482-24.579-5.545c-7.325-1.652-11.92-8.912-10.263-16.215 1.658-7.303 8.94-11.883 16.266-10.23 7.326 1.652 11.921 8.912 10.264 16.214a13.513 13.513 0 0 1-6.021 8.478l-.01.008a.34.34 0 0 0 .116.605l10.935 2.465a.68.68 0 0 0 .69-.252c.001-.002 0 0 0 0C61.192 34.037 63 29.08 63 23.718 63 11.091 53.104.772 40.62.039A27.122 27.122 0 0 0 23.6 4.9C11.296 13.487 8.306 30.393 16.922 42.66l21.866 31.13a.512.512 0 0 0 .827-.002L61.088 43.26a.507.507 0 0 0-.308-.78Z" fill="#FABC26"/></svg>