<svg width="800" height="550" viewBox="0 0 800 550" fill="none" xmlns="http://www.w3.org/2000/svg"><g clip-path="url(#a)"><path d="M731.429 6.429H68.572c-34.715 0-62.857 28.142-62.857 62.857v411.428c0 34.715 28.142 62.857 62.857 62.857h662.857c34.715 0 62.857-28.142 62.857-62.857V69.286c0-34.715-28.142-62.857-62.857-62.857Z" fill="#fff" stroke="#EDEDED" stroke-width="11.429"/><g clip-path="url(#b)"><mask id="c" style="mask-type:luminance" maskUnits="userSpaceOnUse" x="147" y="193" width="507" height="164"><path d="M653.923 193H147v164h506.923V193Z" fill="#fff"/></mask><g mask="url(#c)"><path d="m339.469 195.896-66.367 158.623h-43.3l-32.659-126.578c-1.983-7.797-3.696-10.653-9.734-13.935-9.846-5.354-26.104-10.371-40.409-13.489l.985-4.621h69.702c8.881 0 16.868 5.925 18.885 16.176l17.249 91.777 42.629-107.963 43.019.01ZM509.124 302.73c.175-41.866-57.788-44.169-57.39-62.874.125-5.691 5.545-11.74 17.375-13.287 5.87-.77 22.041-1.36 40.396 7.098l7.195-33.637c-9.856-3.581-22.537-7.03-38.315-7.03-40.488 0-68.982 21.561-69.222 52.434-.264 22.836 20.33 35.579 35.857 43.165 15.966 7.773 21.32 12.764 21.262 19.717-.116 10.64-12.734 15.34-24.528 15.523-20.593.317-32.535-5.581-42.061-10.019l-7.424 34.751c9.57 4.401 27.236 8.239 45.554 8.429 43.035 0 71.183-21.294 71.315-54.27h-.014Zm106.927 51.789h37.884l-33.087-158.623h-34.961a18.614 18.614 0 0 0-10.499 3.135 18.659 18.659 0 0 0-6.927 8.503l-61.469 146.985h43.011l8.536-23.692h52.554l4.958 23.692Zm-45.705-56.203 21.56-59.56 12.409 59.56h-33.969Zm-172.351-102.42-33.871 158.623h-40.961l33.885-158.623h40.947Z" fill="#1434CB"/></g></g></g><defs><clipPath id="a"><path fill="#fff" d="M0 0h800v550H0z"/></clipPath><clipPath id="b"><path fill="#fff" d="M147 193h507v164H147z"/></clipPath></defs></svg>