<svg width="800" height="550" viewBox="0 0 800 550" fill="none" xmlns="http://www.w3.org/2000/svg"><g clip-path="url(#a)"><path d="M731.429 6.429H68.572c-34.716 0-62.858 28.142-62.858 62.857v411.428c0 34.715 28.142 62.857 62.858 62.857h662.857c34.715 0 62.857-28.142 62.857-62.857V69.286c0-34.715-28.142-62.857-62.857-62.857Z" fill="#fff" stroke="#EDEDED" stroke-width="11.429"/><g clip-path="url(#b)" fill-rule="evenodd" clip-rule="evenodd"><path d="M240.51 220c10.442 0 19.675 2.319 27.368 6.735 7.804 4.637 13.739 11.151 17.916 19.431 4.177 8.391 6.265 18.327 6.265 29.699 0 12.255-2.418 22.964-7.364 31.686-4.836 8.832-11.871 15.236-20.993 19.321 4.726 1.546 8.573 5.079 11.76 10.268l5.496 8.28c1.099 1.877 1.759 3.644 1.759 5.521 0 2.318-.88 4.305-2.748 5.74-1.869 1.436-4.067 2.319-6.485 2.319-1.868 0-3.627-.442-5.276-1.325-1.539-.883-2.968-2.208-4.067-3.864l-9.013-15.015c-1.429-2.429-3.297-4.196-5.605-5.299-2.308-1.105-5.276-1.767-9.013-1.767-10.662 0-19.784-2.319-27.588-6.735-7.804-4.637-13.739-11.151-17.916-19.431-4.177-8.501-6.265-18.438-6.265-29.699 0-11.372 2.198-21.198 6.265-29.699 4.177-8.391 10.222-14.794 17.916-19.431 7.804-4.637 16.926-6.735 27.588-6.735Zm263.243.109c2.639 0 4.726 1.105 6.596 3.423l31.543 39.304 31.435-39.304c1.87-2.208 4.179-3.312 6.814-3.312 2.309 0 4.396.883 6.266 2.76 1.869 1.877 2.748 3.864 2.748 6.514 0 1.987-.77 4.085-2.309 5.962l-35.061 42.947v42.948c0 3.202-.879 5.631-2.748 7.507-1.87 1.877-4.179 2.65-7.036 2.65-2.966 0-5.496-.883-7.362-2.65-1.87-1.766-2.748-4.195-2.748-7.507v-42.948l-34.844-43.058c-1.538-1.877-2.308-3.864-2.308-5.961 0-2.429.879-4.637 2.748-6.514 1.869-1.877 4.065-2.761 6.266-2.761Zm-115.52 9.717c-6.484-5.962-15.497-8.832-27.148-8.832h-37.921c-2.967 0-5.275.883-7.034 2.429-1.758 1.656-2.638 3.974-2.638 6.955v90.643c0 3.091.88 5.52 2.748 7.397 1.649 1.877 4.177 2.76 7.144 2.87 3.078 0 5.496-.883 7.364-2.76 1.869-1.766 2.749-4.195 2.749-7.397v-33.342h27.588c11.651 0 20.664-2.871 27.148-8.833 6.485-5.851 9.782-14.132 9.782-24.62 0-10.488-3.297-18.769-9.782-24.51Zm-229.938-9.717c2.968 0 5.605.884 7.364 2.761 1.868 1.877 2.748 4.195 2.748 7.176v90.974c0 2.981-.88 5.52-2.748 7.397-1.869 1.877-4.287 2.76-7.364 2.76-2.858 0-5.276-.883-7.144-2.76-1.869-1.877-2.748-4.306-2.748-7.397v-90.974c0-2.981.879-5.299 2.748-7.176 1.868-1.877 4.176-2.761 7.144-2.761Zm297.095 1.437c-1.868-.994-3.846-1.546-6.045-1.546-2.198 0-4.177.442-6.045 1.546-1.979 1.104-3.407 2.76-4.287 4.747l-42.646 91.967c-.55 1.325-.879 2.761-.879 4.086 0 2.428.879 4.526 2.857 6.072 1.869 1.545 4.177 2.429 6.485 2.429 1.759 0 3.298-.442 4.726-1.325 1.429-.884 2.529-2.208 3.408-4.085l9.342-20.756h54.078l9.342 20.756c.77 1.766 1.979 3.201 3.408 4.085a8.906 8.906 0 0 0 4.616 1.325c2.528 0 4.728-.884 6.593-2.429 1.87-1.767 2.862-3.754 2.862-6.072 0-1.436-.331-2.65-.77-4.086l-42.758-91.967c-.989-2.098-2.418-3.643-4.287-4.747Zm-382.498-1.325c2.968 0 5.606.883 7.364 2.76 1.869 1.877 2.748 4.195 2.748 7.176v83.798H126.2c6.155 0 9.343 2.76 9.343 8.17 0 5.409-3.188 8.17-9.343 8.17H72.343c-2.968 0-5.276-.884-6.925-2.54C63.88 326.209 63 323.891 63 321.02v-90.863c0-2.981.88-5.299 2.748-7.176 1.868-1.877 4.176-2.76 7.144-2.76Zm143.877 25.724c5.605-6.845 13.409-10.268 23.521-10.268s17.806 3.313 23.412 10.268c5.605 6.956 8.463 16.671 8.463 29.699 0 12.807-2.858 22.744-8.463 29.699-5.606 6.956-13.41 10.378-23.412 10.378-10.002 0-17.916-3.422-23.521-10.378-5.606-6.955-8.464-16.671-8.464-29.699 0-13.028 2.858-22.743 8.464-29.699Zm232.576-2.65-20.334 45.929h40.778l-20.444-45.929Zm-115.848-6.734h25.06c13.629 0 20.553 6.072 20.553 17.996s-6.924 17.996-20.553 17.996l-25.06-.11v-35.882Z" fill="#4B4C4B"/><path d="m628.795 326.48-1.574-1.31c-3.818-3.163-4.492-8.944-1.009-12.652l40.875-45.376c3.257-3.709 9.21-4.363 13.028-.982l1.574 1.309c3.818 3.163 4.492 8.945 1.009 12.653l-40.88 45.376c-3.252 3.709-8.983 4.145-13.023.982Z" fill="url(#c)"/><path opacity=".4" d="m661.586 274.996-.787-.873-6.288 6.981.674.764c10.78 10.471 6.175 21.051 3.705 24.76l.9-.982c1.457-1.636 3.705-4.145 6.062-6.872 2.474-4.144 5.953-13.961-4.266-23.778Z" fill="url(#d)"/><path opacity=".4" d="m675.061 288.63 1.683-1.854c.113-.218.339-.436.452-.655-1.795 1.964-3.704 4.036-5.505 6.109a282.706 282.706 0 0 0 3.37-3.6Z" fill="url(#e)"/><path d="m682.923 268.561-40.879-45.376c-3.257-3.709-9.21-4.363-13.028-.982l-1.569 1.309c-3.818 3.163-4.492 8.944-1.014 12.653l34.479 37.959.787.872c10.219 9.926 6.736 19.743 4.153 23.888 2.022-2.291 4.044-4.581 5.953-6.654 1.795-2.072 3.704-4.145 5.505-6.108 1.795-1.964 3.478-3.818 4.6-5.018 3.931-3.708 4.496-8.835 1.013-12.543Z" fill="url(#f)"/><path d="m680.675 326.48-1.57-1.31c-3.818-3.163-4.492-8.944-1.013-12.652l40.879-45.376c3.257-3.709 9.21-4.363 13.028-.982l1.574 1.309c3.818 3.163 4.492 8.945 1.009 12.653l-40.879 45.376c-3.257 3.709-8.984 4.145-13.028.982Z" fill="url(#g)"/><path opacity=".4" d="m713.919 274.561-.787-.873-6.288 6.981.674.764c10.779 10.471 6.174 21.051 3.705 24.76l.9-.982c1.461-1.636 3.705-4.144 6.061-6.871 2.475-4.145 5.953-13.962-4.265-23.779Z" fill="url(#h)"/><path opacity=".4" d="m726.833 288.63 1.683-1.854c.113-.218.339-.436.452-.655-1.8 1.964-3.709 4.036-5.505 6.109 1.348-1.419 2.583-2.618 3.37-3.6Z" fill="url(#i)"/><path d="m734.695 268.561-40.879-45.376c-3.257-3.709-9.21-4.363-13.028-.982l-1.569 1.309c-3.818 3.163-4.492 8.944-1.014 12.653l34.479 37.959.787.872c10.219 9.926 6.736 19.743 4.153 23.888 2.022-2.291 4.044-4.581 5.952-6.654 1.796-2.072 3.705-4.145 5.506-6.108 1.795-1.964 3.478-3.818 4.6-5.018 3.931-3.708 4.492-8.835 1.013-12.543Z" fill="url(#j)"/></g></g><defs><linearGradient id="c" x1="641.562" y1="340.642" x2="697.654" y2="312.643" gradientUnits="userSpaceOnUse"><stop stop-color="#1FADC3"/><stop offset=".707" stop-color="#36B98F"/></linearGradient><linearGradient id="d" x1="661.482" y1="297.733" x2="672.074" y2="296.145" gradientUnits="userSpaceOnUse"><stop stop-color="#123F06" stop-opacity=".01"/><stop offset="1" stop-color="#123F06"/></linearGradient><linearGradient id="f" x1="602.761" y1="280.127" x2="671.127" y2="304.451" gradientUnits="userSpaceOnUse"><stop stop-color="#9FDB57"/><stop offset="1" stop-color="#71CA5E"/></linearGradient><linearGradient id="g" x1="693.394" y1="340.67" x2="749.486" y2="312.67" gradientUnits="userSpaceOnUse"><stop stop-color="#1FADC3"/><stop offset=".707" stop-color="#36B98F"/></linearGradient><linearGradient id="h" x1="713.814" y1="297.298" x2="724.406" y2="295.71" gradientUnits="userSpaceOnUse"><stop stop-color="#123F06" stop-opacity=".01"/><stop offset="1" stop-color="#123F06"/></linearGradient><linearGradient id="j" x1="654.568" y1="280.147" x2="722.93" y2="304.471" gradientUnits="userSpaceOnUse"><stop stop-color="#9FDB57"/><stop offset="1" stop-color="#71CA5E"/></linearGradient><radialGradient id="e" cx="0" cy="0" r="1" gradientUnits="userSpaceOnUse" gradientTransform="matrix(27.3814 0 0 30.3942 652.537 294.301)"><stop offset=".418" stop-color="#123F06" stop-opacity=".01"/><stop offset="1" stop-color="#123F06"/></radialGradient><radialGradient id="i" cx="0" cy="0" r="1" gradientUnits="userSpaceOnUse" gradientTransform="matrix(27.3817 0 0 30.3942 704.352 294.301)"><stop offset=".418" stop-color="#123F06" stop-opacity=".01"/><stop offset="1" stop-color="#123F06"/></radialGradient><clipPath id="a"><path fill="#fff" d="M0 0h800v550H0z"/></clipPath><clipPath id="b"><path fill="#fff" d="M63 220h674v139H63z"/></clipPath></defs></svg>