<svg width="800" height="550" viewBox="0 0 800 550" fill="none" xmlns="http://www.w3.org/2000/svg"><g clip-path="url(#a)"><path d="M731.429 6.429H68.572c-34.715 0-62.857 28.142-62.857 62.857v411.428c0 34.715 28.142 62.857 62.857 62.857h662.857c34.715 0 62.857-28.142 62.857-62.857V69.286c0-34.715-28.142-62.857-62.857-62.857Z" fill="#fff" stroke="#EDEDED" stroke-width="11.429"/><path d="M400 125.2c82.832 0 150 67.168 150 150s-67.168 150-150 150-150-67.168-150-150 67.168-150 150-150Z" fill="url(#b)"/><path d="M400 124.2c-83.334 0-151 67.57-151 151s67.57 151 151 151 151-67.57 151-151-67.57-151-151-151Zm0 285.372c-74.202 0-134.372-60.17-134.372-134.372 0-74.202 60.17-134.372 134.372-134.372 74.202 0 134.372 60.17 134.372 134.372 0 74.202-60.17 134.372-134.372 134.372Z" fill="#8DC641"/><path d="m453.428 240.552-33.743 50.3h33.743v-50.3Zm12.725-20.352v70.749H481v12.793h-14.847V330.2h-12.822v-26.458H405.61V289.98l48.107-69.683 12.436-.097Zm-74.619 97.11v12.793H320v-.388c.675-12.017 3.76-20.837 9.737-28.105 4.82-6.009 10.701-10.467 22.752-18.027 0 0 4.242-2.713 5.495-3.489 6.46-4.167 10.605-7.462 13.979-11.242 4.146-4.846 6.267-10.079 6.267-16.282 0-12.018-8.484-20.255-20.631-20.255-14.172 0-21.403 10.854-21.788 27.039v.291h-12.726v-.291l-.096-2.907c0-21.71 14.075-36.247 35.285-36.247 20.727 0 34.224 12.599 34.224 32.079 0 9.983-3.567 18.027-10.412 25.102-5.109 5.427-10.412 9.013-22.27 16.282-.193.096-.289.193-.482.29-.578.291-3.181 1.842-3.856 2.326-5.688 3.392-9.159 5.815-12.244 8.723-3.76 3.586-6.266 7.559-7.423 12.211h55.723v.097Z" fill="#fff"/></g><defs><linearGradient id="b" x1="250" y1="275.2" x2="550" y2="275.2" gradientUnits="userSpaceOnUse"><stop stop-color="#333"/><stop offset="1"/></linearGradient><clipPath id="a"><path fill="#fff" d="M0 0h800v550H0z"/></clipPath></defs></svg>