<svg width="800" height="550" viewBox="0 0 800 550" fill="none" xmlns="http://www.w3.org/2000/svg"><g clip-path="url(#a)"><path d="M731.429 6.429H68.572c-34.716 0-62.858 28.142-62.858 62.857v411.428c0 34.715 28.142 62.857 62.858 62.857h662.857c34.715 0 62.857-28.142 62.857-62.857V69.286c0-34.715-28.142-62.857-62.857-62.857Z" fill="#fff" stroke="#EDEDED" stroke-width="11.429"/><path fill-rule="evenodd" clip-rule="evenodd" d="M377.832 360.898v-69.051h35.638c14.603 0 26.93-4.893 36.978-14.544l2.411-2.446c18.356-19.982 17.15-51.108-2.411-69.594-9.781-9.788-23.178-15.088-36.978-14.816h-57.208v170.451h21.57Zm.002-89.984v-59.535h36.18c7.772 0 15.143 2.99 20.636 8.428 11.659 11.417 11.926 30.447.67 42.272-5.494 5.846-13.266 9.107-21.306 8.835h-36.18Zm175.644-17.533c-9.245-8.564-21.838-12.914-37.782-12.914-20.498 0-35.906 7.612-46.089 22.7l19.025 12.097c6.967-10.33 16.48-15.495 28.538-15.495 7.637 0 15.005 2.855 20.766 8.02a25.71 25.71 0 0 1 8.843 19.437v5.029c-8.307-4.621-18.757-7.068-31.619-7.068-15.006 0-27.064 3.534-36.04 10.739-8.977 7.203-13.531 16.719-13.531 28.816-.269 11.01 4.42 21.476 12.728 28.544 8.44 7.612 19.158 11.418 31.752 11.418 14.872 0 26.661-6.661 35.638-19.982h.938v16.176h20.633v-71.905c0-15.088-4.556-27.049-13.8-35.612Zm-58.545 86.041c-4.422-3.263-7.102-8.564-7.102-14.272 0-6.389 2.948-11.691 8.71-15.904 5.896-4.214 13.266-6.389 21.976-6.389 12.06-.136 21.44 2.583 28.14 8.02 0 9.243-3.618 17.262-10.72 24.059-6.432 6.525-15.142 10.194-24.254 10.194-6.03.136-11.926-1.903-16.75-5.708Zm118.701 72.72 72.081-167.869h-23.446l-33.36 83.73h-.403l-34.164-83.73h-23.446l47.294 109.149-26.796 58.72h22.24Z" fill="#3C4043"/><path d="M303.36 276.896c0-6.661-.536-13.321-1.607-19.846h-90.971v37.652h52.117c-2.144 12.098-9.11 22.972-19.293 29.768v24.467h31.083c18.221-16.991 28.671-42.137 28.671-72.041Z" fill="#4285F4"/><path d="M210.791 372.589c25.992 0 47.964-8.7 63.907-23.652l-31.082-24.466c-8.709 5.98-19.829 9.378-32.825 9.378-25.188 0-46.491-17.263-54.127-40.37h-32.022v25.282c16.346 33.031 49.706 53.828 86.149 53.828Z" fill="#34A853"/><path d="M156.663 293.479c-4.02-12.097-4.02-25.281 0-37.516v-25.146h-32.025c-13.803 27.593-13.803 60.216 0 87.808l32.025-25.146Z" fill="#FBBC04"/><path d="M210.791 215.593c13.8-.272 27.064 5.03 36.978 14.68l27.6-28.001c-17.552-16.583-40.595-25.689-64.578-25.417-36.443 0-69.803 20.932-86.149 53.962l32.022 25.282c7.636-23.243 28.939-40.506 54.127-40.506Z" fill="#EA4335"/></g><defs><clipPath id="a"><path fill="#fff" d="M0 0h800v550H0z"/></clipPath></defs></svg>