<svg width="800" height="550" viewBox="0 0 800 550" fill="none" xmlns="http://www.w3.org/2000/svg"><g clip-path="url(#a)"><path d="M731.429 6.429H68.572c-34.716 0-62.858 28.142-62.858 62.857v411.428c0 34.715 28.142 62.857 62.858 62.857h662.857c34.715 0 62.857-28.142 62.857-62.857V69.286c0-34.715-28.142-62.857-62.857-62.857Z" fill="#fff" stroke="#EDEDED" stroke-width="11.429"/><g clip-path="url(#b)"><path d="M448.674 186.946H351.33v176.109h97.344V186.946Z" fill="#FF5F00"/><path d="M357.51 275a112.429 112.429 0 0 1 11.163-48.958 111.663 111.663 0 0 1 31.328-39.096 110.84 110.84 0 0 0-56.878-23.306 110.593 110.593 0 0 0-60.494 10.623c-18.776 9.185-34.606 23.503-45.681 41.316A112.56 112.56 0 0 0 220 275c0 21.015 5.873 41.606 16.948 59.421 11.075 17.813 26.905 32.131 45.681 41.316a110.593 110.593 0 0 0 60.494 10.623 110.84 110.84 0 0 0 56.878-23.306 111.663 111.663 0 0 1-31.328-39.096A112.429 112.429 0 0 1 357.51 275Z" fill="#EB001B"/><path d="M579.995 275a112.554 112.554 0 0 1-16.946 59.42c-11.074 17.814-26.904 32.132-45.679 41.317a110.593 110.593 0 0 1-60.494 10.623A110.825 110.825 0 0 1 400 363.054a111.867 111.867 0 0 0 31.305-39.107A112.616 112.616 0 0 0 442.491 275c0-16.958-3.824-33.694-11.186-48.948A111.872 111.872 0 0 0 400 186.946a110.834 110.834 0 0 1 56.876-23.306 110.593 110.593 0 0 1 60.494 10.623c18.775 9.185 34.605 23.503 45.679 41.317A112.554 112.554 0 0 1 579.995 275ZM569.383 344.402v-3.606h1.444v-.734h-3.678v.734h1.445v3.606h.789Zm7.14 0v-4.348h-1.127l-1.297 2.991-1.297-2.991h-1.128v4.348h.796v-3.28l1.216 2.828h.826l1.216-2.835v3.287h.795Z" fill="#F79E1B"/></g></g><defs><clipPath id="a"><path fill="#fff" d="M0 0h800v550H0z"/></clipPath><clipPath id="b"><path fill="#fff" d="M220 163h361v224H220z"/></clipPath></defs></svg>