<svg width="800" height="550" viewBox="0 0 800 550" fill="none" xmlns="http://www.w3.org/2000/svg"><g clip-path="url(#a)"><path d="M731.429 6.429H68.572c-34.716 0-62.858 28.142-62.858 62.857v411.428c0 34.715 28.142 62.857 62.858 62.857h662.857c34.715 0 62.857-28.142 62.857-62.857V69.286c0-34.715-28.142-62.857-62.857-62.857Z" fill="#fff" stroke="#EDEDED" stroke-width="11.429"/><path fill-rule="evenodd" clip-rule="evenodd" d="M218.973 191.415c-6.715 8.043-17.459 14.387-28.203 13.481-1.343-10.875 3.918-22.431 10.072-29.568 6.716-8.27 18.467-14.16 27.98-14.614 1.119 11.329-3.246 22.431-9.849 30.701Zm9.736 15.633c-9.466-.551-18.102 2.882-25.078 5.655-4.489 1.784-8.29 3.295-11.183 3.295-3.246 0-7.203-1.591-11.648-3.379-5.824-2.341-12.482-5.019-19.464-4.891-16.003.226-30.888 9.403-39.058 24.017-16.787 29.228-4.365 72.504 11.863 96.294 7.946 11.782 17.459 24.696 29.993 24.243 5.514-.21 9.481-1.914 13.586-3.677 4.727-2.03 9.637-4.14 17.303-4.14 7.4 0 12.095 2.054 16.602 4.026 4.285 1.875 8.4 3.675 14.51 3.565 12.982-.227 21.152-11.782 29.097-23.563 8.575-12.646 12.344-24.987 12.915-26.86l.068-.217s-.12-.063-.308-.149c-2.866-1.329-24.776-11.482-24.985-38.708-.211-22.853 17.377-34.431 20.147-36.254.168-.111.282-.185.333-.224-11.192-16.767-28.65-18.579-34.693-19.033Zm89.868 143.761V174.195h65.47c33.799 0 57.412 23.564 57.412 58.003 0 34.44-24.061 58.229-58.307 58.229h-37.491v60.382h-27.084Zm27.081-153.503h31.224c23.502 0 36.932 12.688 36.932 35.006 0 22.317-13.43 35.119-37.044 35.119h-31.112v-70.125ZM530.88 329.625c-7.162 13.821-22.943 22.544-39.953 22.544-25.182 0-42.752-15.18-42.752-38.064 0-22.658 17.011-35.686 48.459-37.611l33.798-2.04v-9.742c0-14.387-9.289-22.205-25.851-22.205-13.654 0-23.615 7.138-25.629 18.013h-24.398c.783-22.883 22.047-39.537 50.809-39.537 31 0 51.146 16.426 51.146 41.916v87.91H531.44v-21.184h-.56Zm-32.681 1.586c-14.437 0-23.614-7.024-23.614-17.786 0-11.102 8.841-17.56 25.741-18.579l30.105-1.926v9.969c0 16.541-13.878 28.322-32.232 28.322Zm141.46 26.509c-10.854 30.928-23.277 41.123-49.689 41.123-2.015 0-8.73-.226-10.297-.68v-21.184c1.679.227 5.821.453 7.946.453 11.975 0 18.691-5.098 22.831-18.352l2.462-7.817-45.885-128.581h28.315l31.896 104.337h.559l31.896-104.337h27.531L639.659 357.72Z" fill="#000"/></g><defs><clipPath id="a"><path fill="#fff" d="M0 0h800v550H0z"/></clipPath></defs></svg>