<svg width="416" height="419" viewBox="0 0 416 419" fill="none" xmlns="http://www.w3.org/2000/svg"><g clip-path="url(#a)"><path d="M184.698 41.129C145.742 29.4 108.627 21.977 69.422 32.146 33.306 42.5 3.37 71.977.093 109.313c-1.248 20.774 10.239 38.147 21.008 54.024 4.464 7.174 8.771 14.348 12.392 21.709 3.621 7.361 6.555 14.909 8.272 22.832 2.03 8.297 2.56 16.656 1.03 24.922-1.685 7.891-4.526 15.783-7.616 23.674-5.962 12.103-11.269 25.078-15.14 38.49a176.728 176.728 0 0 0-4.62 20.4c-4.65 16.656-1.497 33.53 5.963 48.565 11.175 22.551 35.491 34.435 59.527 33.811 20.383-.873 40.329-2.807 60.213-3.961 4.963-.281 9.926-.53 14.89-.686 5.431.187 10.862.467 16.262.842 33.026-.219 62.18 18.216 94.207 23.269 37.239 5.364 87.838-3.088 102.197-43.918 2.341-6.457 3.559-13.319 3.59-20.524-.063-4.055-.624-8.203-1.686-12.352-4.557-16.001-11.268-31.815-16.793-47.66-5.369-15.315-9.646-30.661-9.802-46.101 0-1.029-.062-2.059-.093-3.088-.281-6.8 1.092-13.506 3.34-20.056 2.153-5.708 4.651-12.851 8.147-18.902 30.497-38.833 76.726-78.821 55-134.341-12.673-32.034-43.295-60.98-80.347-54.523-29.841 3.431-104.32 37.211-145.336 25.39Z" fill="#EDEDED"/><path d="M355.876 146.992c2.903 0 5.275 2.465 5.275 5.49 0 3.026-2.372 5.49-5.275 5.49-2.903 0-5.275-2.464-5.275-5.49-.032-3.025 2.341-5.49 5.275-5.49Zm0-4.46c-5.275 0-9.583 4.46-9.583 9.95 0 5.49 4.276 9.95 9.583 9.95 5.275 0 9.583-4.46 9.583-9.95-.031-5.49-4.308-9.95-9.583-9.95ZM136.907 4.822c2.903 0 5.275 2.464 5.275 5.49 0 3.025-2.372 5.49-5.275 5.49-2.903 0-5.275-2.465-5.275-5.49 0-3.026 2.372-5.49 5.275-5.49Zm0-4.46c-5.275 0-9.583 4.46-9.583 9.95 0 5.49 4.277 9.95 9.583 9.95 5.275 0 9.583-4.46 9.583-9.95 0-5.49-4.308-9.95-9.583-9.95ZM80.067 356.037c2.903 0 5.276 2.464 5.276 5.49 0 3.025-2.373 5.489-5.276 5.489-2.903 0-5.275-2.464-5.275-5.489 0-3.026 2.372-5.49 5.275-5.49Zm0-4.46c-5.275 0-9.583 4.46-9.583 9.95 0 5.489 4.277 9.95 9.583 9.95 5.276 0 9.583-4.461 9.583-9.95 0-5.49-4.276-9.95-9.583-9.95Z" fill="#C5C5C5"/><path opacity=".17" d="M189.694 367.89c80.215 0 145.242-63.177 145.242-141.11 0-77.933-65.027-141.11-145.242-141.11-80.215 0-145.243 63.177-145.243 141.11 0 77.933 65.028 141.11 145.243 141.11Z" fill="#7F7F7F"/><path d="M271.703 305.433c56.295-55.048 59.158-143.349 6.395-197.226-52.762-53.876-141.171-52.926-197.466 2.122-56.295 55.049-59.158 143.35-6.395 197.226 52.762 53.876 141.171 52.926 197.466-2.122Z" fill="#585858"/><path d="M255.439 305.43c56.295-55.049 59.158-143.35 6.396-197.226-52.763-53.876-141.172-52.926-197.467 2.122C8.074 165.374 5.21 253.675 57.973 307.552c52.762 53.876 141.171 52.926 197.466-2.122Z" fill="#151515"/><path opacity=".17" d="M131.325 273.598 89.528 232.8c-8.958-8.734-8.677-23.238.656-31.597l1.436-1.279c8.49-7.642 21.507-7.392 29.685.593l17.48 17.062c5.494 5.364 14.203 5.552 19.915.405l65.864-59.295c8.49-7.642 21.507-7.392 29.685.593 8.959 8.733 8.678 23.237-.655 31.597l-92.584 83.343c-8.49 7.642-21.507 7.392-29.685-.624Z" fill="#fff"/><path d="m118.432 260.747-41.796-40.829c-8.959-8.734-8.678-23.238.655-31.597l1.436-1.279c8.49-7.642 21.507-7.392 29.685.593l17.481 17.061c5.494 5.365 14.203 5.553 19.915.406l65.863-59.295c8.491-7.642 21.507-7.392 29.685.593 8.959 8.733 8.678 23.237-.655 31.597l-92.583 83.343c-8.491 7.642-21.507 7.392-29.686-.593Z" fill="#fff"/></g><defs><clipPath id="a"><path fill="#fff" d="M0 0h416v419H0z"/></clipPath></defs></svg>