<svg width="20" height="20" viewBox="0 0 20 20" fill="none" xmlns="http://www.w3.org/2000/svg"><path d="M10.007 2.53a.63.63 0 0 1 .725-.522l.127.025c.072.016.17.042.296.077.25.073.6.194 1.02.385.839.385 1.955 1.058 3.114 2.216 1.16 1.159 1.833 2.275 2.218 3.114.192.419.311.768.385 1.018.036.127.068.254.095.383l.004.026a.644.644 0 0 1-.52.74.632.632 0 0 1-.724-.52l-.012-.057a3.37 3.37 0 0 0-.056-.219 6.226 6.226 0 0 0-.32-.845c-.33-.715-.92-1.705-1.964-2.746-1.042-1.043-2.03-1.634-2.748-1.962a6.23 6.23 0 0 0-.845-.32 5.063 5.063 0 0 0-.268-.068.64.64 0 0 1-.527-.724" fill="#fff"/><path fill-rule="evenodd" clip-rule="evenodd" d="M10.19 5.663a.6.6 0 0 1 .741-.412h.003l.002.001.007.002.016.005a1.685 1.685 0 0 1 .186.071c.117.05.276.127.472.242.392.232.926.617 1.554 1.245.628.628 1.013 1.163 1.245 1.555.116.195.192.354.243.472.026.061.05.123.07.186l.006.016.002.006v.004a.602.602 0 0 1-.408.738.6.6 0 0 1-.743-.399l-.002-.009-.028-.07a3.223 3.223 0 0 0-.173-.333c-.179-.302-.5-.757-1.06-1.317-.56-.56-1.016-.882-1.317-1.06a3.2 3.2 0 0 0-.404-.2l-.008-.004a.6.6 0 0 1-.404-.74Zm-6.784-.739C4.75 3.58 7.019 3.683 7.955 5.36l.52.93c.61 1.095.35 2.477-.545 3.383a.504.504 0 0 0-.083.269c-.01.204.062.679.798 1.413.734.735 1.208.808 1.413.798a.505.505 0 0 0 .27-.082c.905-.896 2.288-1.156 3.382-.544l.93.519c1.677.936 1.78 3.204.436 4.548-.72.719-1.675 1.358-2.799 1.4-1.664.064-4.43-.366-7.167-3.104S1.942 9.388 2.006 7.723c.042-1.123.681-2.08 1.4-2.799Zm3.5 1.02c-.48-.858-1.767-1.056-2.651-.17-.62.62-1.024 1.303-1.05 1.995-.053 1.388.29 3.808 2.754 6.272 2.463 2.464 4.884 2.807 6.273 2.754.69-.026 1.376-.43 1.995-1.05.885-.885.688-2.172-.171-2.651l-.93-.52c-.58-.323-1.393-.212-1.963.358-.056.056-.413.39-1.046.42-.648.031-1.433-.26-2.32-1.148-.89-.888-1.18-1.673-1.148-2.322.03-.633.364-.99.419-1.045.571-.57.68-1.384.358-1.962l-.52-.93Z" fill="#fff"/></svg>