<svg width="12" height="12" viewBox="0 0 12 12" fill="none" xmlns="http://www.w3.org/2000/svg"><path fill-rule="evenodd" clip-rule="evenodd" d="M6 2.7a.283.283 0 0 1 .282.283v2.734h2.735a.283.283 0 1 1 0 .566H6.282v2.734a.283.283 0 1 1-.565 0V6.283H2.982a.283.283 0 1 1 0-.566h2.735V2.983a.283.283 0 0 1 .282-.283Z" fill="#151515"/><path fill-rule="evenodd" clip-rule="evenodd" d="M6 2.2a.783.783 0 0 1 .782.783v2.234h2.235a.783.783 0 0 1 0 1.566H6.782v2.234a.783.783 0 0 1-1.565 0V6.783H2.982a.783.783 0 0 1 0-1.566h2.235V2.983a.783.783 0 0 1 .782-.783Zm-.283 3.517H2.982a.283.283 0 1 0 0 .566h2.735v2.734a.283.283 0 1 0 .565 0V6.283h2.735a.283.283 0 0 0 0-.566H6.282V2.983a.283.283 0 0 0-.565 0v2.734Z" fill="#151515"/></svg>