<svg width="24" height="24" viewBox="0 0 24 24" fill="none" xmlns="http://www.w3.org/2000/svg"><path d="M20.498 6h-17m15.333 2.5-.46 6.9c-.177 2.654-.265 3.981-1.13 4.79-.865.809-2.196.81-4.856.81h-.774c-2.66 0-3.991 0-4.856-.81-.865-.809-.954-2.136-1.13-4.79l-.46-6.9M9.498 11l.5 5m4.5-5-.5 5" stroke="#000" stroke-width="1.5" stroke-linecap="round"/><path d="M6.498 6h.11a2 2 0 0 0 1.83-1.32l.034-.103.097-.291c.083-.249.125-.373.18-.479a1.5 1.5 0 0 1 1.094-.788C9.96 3 10.091 3 10.353 3h3.29c.262 0 .393 0 .51.019a1.5 1.5 0 0 1 1.094.788c.055.106.097.23.18.479l.097.291A2 2 0 0 0 17.498 6" stroke="#000" stroke-width="1.5"/></svg>