<svg width="86" height="14" viewBox="0 0 86 14" fill="none" xmlns="http://www.w3.org/2000/svg"><path d="m7.001 1.75 1.371 3.36 3.623.268-2.777 2.345.869 3.524-3.086-1.914-3.086 1.914.87-3.524-2.777-2.345L5.63 5.11l1.371-3.36Z" fill="#151515"/><path d="m7.001 1.75-1.37 3.36-3.623.268 2.776 2.345-.869 3.524 3.086-1.914m0-7.583 1.371 3.36 3.623.268-2.777 2.345.869 3.524-3.086-1.914" stroke="#151515" stroke-width="2" stroke-linecap="round" stroke-linejoin="round"/><path d="m25.001 1.75 1.371 3.36 3.622.268-2.776 2.345.869 3.524-3.086-1.914-3.086 1.914.87-3.524-2.777-2.345 3.622-.268 1.371-3.36Z" fill="#151515"/><path d="m25.001 1.75-1.37 3.36-3.623.268 2.777 2.345-.87 3.524 3.086-1.914m0-7.583 1.371 3.36 3.622.268-2.776 2.345.869 3.524-3.086-1.914" stroke="#151515" stroke-width="2" stroke-linecap="round" stroke-linejoin="round"/><path d="m43.001 1.75 1.371 3.36 3.623.268-2.777 2.345.869 3.524-3.086-1.914-3.086 1.914.87-3.524-2.777-2.345 3.622-.268 1.371-3.36Z" fill="#151515"/><path d="m43.001 1.75-1.37 3.36-3.623.268 2.776 2.345-.869 3.524 3.086-1.914m0-7.583 1.371 3.36 3.623.268-2.777 2.345.869 3.524-3.086-1.914" stroke="#151515" stroke-width="2" stroke-linecap="round" stroke-linejoin="round"/><path d="m61.001 1.75 1.371 3.36 3.623.268-2.777 2.345.869 3.524-3.086-1.914-3.086 1.914.87-3.524-2.777-2.345 3.622-.268 1.371-3.36Z" fill="#151515"/><path d="m61.001 1.75-1.37 3.36-3.623.268 2.776 2.345-.869 3.524 3.086-1.914m0-7.583 1.371 3.36 3.623.268-2.777 2.345.869 3.524-3.086-1.914" stroke="#151515" stroke-width="2" stroke-linecap="round" stroke-linejoin="round"/><path d="m79.001 1.75 1.371 3.36 3.623.268-2.777 2.345.869 3.524-3.086-1.914-3.086 1.914.87-3.524-2.777-2.345 3.622-.268 1.371-3.36Z" fill="#151515"/><path d="m79.001 1.75-1.37 3.36-3.623.268 2.776 2.345-.869 3.524 3.086-1.914m0-7.583 1.371 3.36 3.623.268-2.777 2.345.869 3.524-3.086-1.914" stroke="#151515" stroke-width="2" stroke-linecap="round" stroke-linejoin="round"/></svg>