<svg width="20" height="20" viewBox="0 0 20 20" fill="none" xmlns="http://www.w3.org/2000/svg"><g clip-path="url(#a)"><path fill-rule="evenodd" clip-rule="evenodd" d="M16.483 3.692A1.25 1.25 0 0 1 18.2 5.047l-1.89 11.464c-.183 1.106-1.396 1.74-2.41 1.189a48.737 48.737 0 0 1-3.242-1.912c-.567-.37-2.303-1.558-2.09-2.403.184-.723 3.1-3.438 4.767-5.052.654-.634.356-1-.417-.416-1.918 1.448-4.998 3.65-6.016 4.27-.899.547-1.367.64-1.927.547-1.022-.17-1.969-.433-2.742-.754-1.045-.433-.995-1.87-.001-2.288l14.25-6Z" fill="#609CF5"/></g><defs><clipPath id="a"><path fill="#fff" d="M0 0h20v20H0z"/></clipPath></defs></svg>