<svg width="20" height="20" viewBox="0 0 20 20" fill="none" xmlns="http://www.w3.org/2000/svg"><path fill-rule="evenodd" clip-rule="evenodd" d="M13.9 2.19a18.25 18.25 0 0 0-7.963 0l-.283.063a4.088 4.088 0 0 0-3.07 2.983 16.223 16.223 0 0 0 0 7.981 4.087 4.087 0 0 0 2.87 2.933l.388 2.314a.417.417 0 0 0 .688.241l2.276-2.035a18.25 18.25 0 0 0 5.093-.406l.284-.063a4.087 4.087 0 0 0 3.07-2.983 16.225 16.225 0 0 0 0-7.98 4.088 4.088 0 0 0-3.071-2.984l-.283-.064ZM6.64 5.17a.685.685 0 0 0-.447.088H6.18a3.423 3.423 0 0 0-.834.686c-.2.23-.308.464-.337.69a.948.948 0 0 0 .034.395l.015.008c.225.661.519 1.297.877 1.895.462.84 1.03 1.618 1.692 2.313l.02.028.031.023.02.023.023.02a11.305 11.305 0 0 0 2.318 1.7c.963.524 1.547.772 1.898.875v.005a.962.962 0 0 0 .29.046 1.34 1.34 0 0 0 .803-.345c.27-.24.5-.523.678-.837v-.006c.168-.316.111-.615-.13-.817a10.11 10.11 0 0 0-1.568-1.125c-.373-.203-.752-.08-.906.125l-.327.413c-.169.205-.474.177-.474.177l-.008.005c-2.276-.581-2.883-2.885-2.883-2.885s-.029-.314.182-.474l.41-.33c.197-.16.334-.538.123-.911a9.84 9.84 0 0 0-1.123-1.567.623.623 0 0 0-.366-.22l.001.002Zm3.845-1.002a.417.417 0 1 0 0 .833c1.054 0 1.93.345 2.622 1.005.356.36.633.788.815 1.256.182.47.266.97.244 1.472a.416.416 0 0 0 .4.434.417.417 0 0 0 .433-.4 4.466 4.466 0 0 0-.3-1.807 4.535 4.535 0 0 0-1.004-1.545l-.008-.009c-.86-.82-1.947-1.239-3.202-1.239Zm-.028 1.37a.417.417 0 0 0 0 .833h.014c.76.055 1.313.308 1.7.724.398.428.604.96.588 1.619a.417.417 0 1 0 .834.02c.02-.865-.259-1.61-.81-2.206v-.002c-.564-.605-1.339-.925-2.27-.987l-.014-.002-.042.001Zm-.016 1.396a.416.416 0 1 0-.043.832c.348.018.57.123.71.264.141.141.246.369.265.725a.418.418 0 0 0 .732.265.417.417 0 0 0 .1-.31c-.027-.5-.183-.941-.504-1.266-.322-.325-.762-.483-1.26-.51Z" fill="#9138D7"/></svg>