<svg width="16" height="16" viewBox="0 0 16 16" fill="none" xmlns="http://www.w3.org/2000/svg"><path d="M7.599.002C6.315.018 3.554.23 2.01 1.645.862 2.784.46 4.466.414 6.546.374 8.62.328 12.512 4.08 13.572v1.615s-.023.646.404.779c.526.166.825-.331 1.325-.865l.933-1.055c2.567.214 4.534-.278 4.76-.351.521-.167 3.456-.542 3.935-4.435.492-4.021-.24-6.554-1.56-7.7h-.008c-.398-.368-2-1.535-5.578-1.548 0 0-.265-.018-.692-.01Zm.044 1.131c.364-.002.586.013.586.013 3.028.008 4.474.92 4.815 1.227 1.112.952 1.685 3.236 1.265 6.593-.398 3.256-2.778 3.462-3.219 3.602-.187.06-1.92.487-4.101.347 0 0-1.625 1.96-2.133 2.466-.08.088-.175.114-.235.101-.086-.021-.112-.127-.107-.273l.016-2.68c-3.183-.88-2.995-4.2-2.961-5.935.039-1.735.364-3.154 1.333-4.115C4.207 1.3 6.551 1.141 7.642 1.133Zm.24 1.734a.199.199 0 0 0-.2.198.2.2 0 0 0 .2.2 3.756 3.756 0 0 1 2.687 1.06c.727.706 1.08 1.654 1.094 2.893 0 .11.089.201.2.201v-.008a.2.2 0 0 0 .201-.198 4.306 4.306 0 0 0-1.208-3.175c-.792-.773-1.795-1.172-2.974-1.172v.001Zm-2.636.458a.626.626 0 0 0-.409.081h-.01c-.286.168-.543.38-.763.627-.183.212-.282.425-.308.63a.852.852 0 0 0 .032.362l.013.008c.205.604.474 1.185.802 1.732.422.769.942 1.48 1.547 2.115l.018.026.028.021.018.021.021.018c.638.606 1.35 1.129 2.12 1.555.88.478 1.414.705 1.735.799v.005c.094.029.18.042.265.042.274-.02.532-.131.735-.316.247-.22.456-.478.62-.765v-.005c.153-.289.101-.563-.12-.748a9.235 9.235 0 0 0-1.433-1.028c-.34-.185-.687-.073-.828.114l-.3.378c-.153.188-.432.162-.432.162l-.008.005c-2.08-.532-2.635-2.638-2.635-2.638s-.026-.287.166-.433l.375-.302c.18-.146.305-.492.112-.834a8.996 8.996 0 0 0-1.026-1.432.57.57 0 0 0-.336-.2h.001Zm2.982.595c-.266 0-.266.4.002.4a2.513 2.513 0 0 1 1.766.766 2.33 2.33 0 0 1 .599 1.713.201.201 0 0 0 .2.198l.008.011a.202.202 0 0 0 .2-.2c.019-.795-.228-1.462-.713-1.995-.487-.534-1.166-.834-2.034-.893H8.23Zm.328 1.077c-.273-.008-.284.402-.013.41.66.034.98.367 1.021 1.051a.199.199 0 0 0 .198.196h.008a.202.202 0 0 0 .193-.213c-.047-.893-.534-1.396-1.399-1.443h-.008Z" fill="#151515"/></svg>