<svg width="20" height="20" viewBox="0 0 20 20" fill="none" xmlns="http://www.w3.org/2000/svg"><path d="M19.558 5.393a2.37 2.37 0 0 0-.649-1.068 2.546 2.546 0 0 0-1.12-.618c-1.553-.403-7.8-.403-7.8-.403s-6.246.012-7.798.415c-.424.11-.81.322-1.12.618a2.37 2.37 0 0 0-.65 1.068c-.47 2.626-.651 6.628.013 9.15.115.403.338.771.649 1.067.31.296.697.509 1.121.618 1.552.403 7.799.403 7.799.403s6.246 0 7.798-.403c.424-.11.81-.322 1.121-.618a2.37 2.37 0 0 0 .65-1.068c.494-2.63.647-6.63-.014-9.162Z" fill="red"/><path d="m8.002 12.832 5.182-2.859-5.182-2.858v5.717Z" fill="#151515"/></svg>